<svg xmlns="http://www.w3.org/2000/svg" xmlns:xlink="http://www.w3.org/1999/xlink" xmlns:lucid="lucid" width="722.99" height="518.22"><g transform="translate(-150.47894500037415 3.1230523510899353)" lucid:page-tab-id="0_0"><path d="M0 0h1023.95v511.97H0z" fill="#fff"/><path d="M270.67 276.23c0 27.67-22.43 50.1-50.1 50.1-27.66 0-50.1-22.43-50.1-50.1 0-27.66 22.44-50.1 50.1-50.1 27.67 0 50.1 22.44 50.1 50.1z" stroke="#5e5e5e" stroke-width="3" fill="#fff"/><use xlink:href="#a" transform="matrix(1,0,0,1,175.47894500037415,231.13596553391443) translate(1.05555555555555 49.05902777777778)"/><path d="M416.37 275.96c0 27.67-22.43 50.1-50.1 50.1-27.66 0-50.1-22.43-50.1-50.1s22.44-50.1 50.1-50.1c27.67 0 50.1 22.43 50.1 50.1z" stroke="#5e5e5e" stroke-width="3" fill="#fff"/><use xlink:href="#b" transform="matrix(1,0,0,1,321.1780921635211,230.86449330145092) translate(9.790123456790127 49.05902777777778)"/><path d="M562.07 275.96c0 29.2-22.43 52.88-50.1 52.88-27.66 0-50.1-23.67-50.1-52.88 0-29.2 22.44-52.88 50.1-52.88 27.67 0 50.1 23.68 50.1 52.88z" stroke="#5e5e5e" stroke-width="3" fill="#fff"/><use xlink:href="#c" transform="matrix(1,0,0,1,466.8772393266681,228.08132284982753) translate(14.850679012345681 38.77777777777778)"/><use xlink:href="#d" transform="matrix(1,0,0,1,466.8772393266681,228.08132284982753) translate(12.319814814814814 65.44444444444446)"/><path d="M707.77 275.96c0 27.67-22.43 50.1-50.1 50.1-27.66 0-50.1-22.43-50.1-50.1s22.44-50.1 50.1-50.1c27.67 0 50.1 22.43 50.1 50.1z" stroke="#5e5e5e" stroke-width="3" fill="#fff"/><use xlink:href="#e" transform="matrix(1,0,0,1,612.5763864898151,230.86449330145092) translate(7.876543209876544 49.05902777777778)"/><path d="M853.47 275.7c0 27.66-22.43 50.1-50.1 50.1s-50.1-22.44-50.1-50.1c0-27.68 22.43-50.1 50.1-50.1s50.1 22.42 50.1 50.1z" stroke="#5e5e5e" stroke-width="3" fill="#fff"/><use xlink:href="#f" transform="matrix(1,0,0,1,758.2755336529617,230.59302106898747) translate(22.074074074074076 49.05902777777778)"/><path d="M273.17 276.23h20.12c.06 0 .13-.06.13-.13 0-.08.06-.14.13-.14h2.62" stroke="#5e5e5e" stroke-width="2" fill="none"/><path d="M273.2 277.23h-1.07l.04-1-.03-1h1.06z" fill="#5e5e5e"/><path d="M311.44 275.96l-14.26 4.64v-9.27z" stroke="#5e5e5e" stroke-width="2" fill="#5e5e5e"/><path d="M418.87 275.96h23" stroke="#5e5e5e" stroke-width="2" fill="none"/><path d="M418.9 276.96h-1.08l.05-1-.03-1h1.06z" fill="#5e5e5e"/><path d="M457.14 275.96l-14.27 4.64v-9.27z" stroke="#5e5e5e" stroke-width="2" fill="#5e5e5e"/><path d="M564.57 275.96h23" stroke="#5e5e5e" stroke-width="2" fill="none"/><path d="M564.6 276.96h-1.07l.04-.98-.03-1.02h1.06z" fill="#5e5e5e"/><path d="M602.84 275.96l-14.27 4.64v-9.27z" stroke="#5e5e5e" stroke-width="2" fill="#5e5e5e"/><path d="M710.27 275.96h20.12c.06 0 .12-.06.12-.13 0-.08.06-.14.14-.14h2.6" stroke="#5e5e5e" stroke-width="2" fill="none"/><path d="M710.3 276.96h-1.08l.05-1-.04-1h1.07z" fill="#5e5e5e"/><path d="M748.54 275.7l-14.27 4.63v-9.28z" stroke="#5e5e5e" stroke-width="2" fill="#5e5e5e"/><path d="M430.5 347.45c0-3.32 2.7-6 6-6h129.84c3.32 0 6 2.68 6 6v23.46c0 3.32-2.68 6-6 6H436.5c-3.3 0-6-2.68-6-6z" stroke="#000" stroke-opacity="0" stroke-width="3" fill="#fff" fill-opacity="0"/><use xlink:href="#g" transform="matrix(1,0,0,1,435.50757874154243,346.4466589125332) translate(13.00617283950617 17.77777777777778)"/><use xlink:href="#h" transform="matrix(1,0,0,1,435.50757874154243,346.4466589125332) translate(40.10493827160494 44.44444444444444)"/><path d="M657.65 328.56l-.07 3.33-.26 4.18-.43 4.1-.6 3.97-.74 3.9-.9 3.83-1.05 3.77-1.2 3.72-1.37 3.68-1.54 3.65-1.72 3.63-1.9 3.62-2.08 3.62-2.3 3.6-2.52 3.64-2.77 3.66-3.02 3.67-3.34 3.7-3.66 3.74-4.02 3.78-4.42 3.8-4.87 3.87-5.37 3.9-5.92 3.93-6.55 3.96-7.23 3.98-8 3.97-8.84 3.93-9.76 3.86-10.76 3.75-11.8 3.55-12.88 3.3-13.96 2.96-14.96 2.54-15.86 2-16.55 1.38-17 .72h-17.16l-17-.72-16.52-1.38-15.82-2-14.93-2.52-13.92-2.96-12.84-3.3-11.76-3.54-10.72-3.73-9.72-3.86-8.82-3.92-7.97-3.95-7.2-3.97-6.52-3.94-5.9-3.92-5.36-3.9-4.85-3.83-4.4-3.8-4.02-3.76-3.65-3.73-3.32-3.68-3.03-3.66-2.77-3.64-2.52-3.63-2.28-3.62-2.08-3.6-1.9-3.62-1.7-3.62-1.53-3.65-1.36-3.7-1.2-3.7-1.05-3.77-.9-3.82-.4-2.07" stroke="#5e5e5e" stroke-width="2" fill="none"/><path d="M657.66 327.56l1-.04v1.1l-2-.05v-1.06z" fill="#5e5e5e"/><path d="M220.88 331.05l5.94 13.78-9.23.86z" stroke="#5e5e5e" stroke-width="2" fill="#5e5e5e"/><path d="M511.93 331.34l-.2 4.2-.53 3.74-.7 2.8-.75 2.17-.8 1.73-.84 1.4-.85 1.2-.9 1-.9.84-.98.73-1.02.63-1.1.54-1.2.45-1.34.35-1.5.25-1.7.1-2.02-.05-2.4-.32-2.95-.67-3.65-1.23-4.6-2.07-5.8-3.3-7-4.94-7.68-6.63-7.26-7.57-5.78-7.33-4.04-6.28-2.6-5.1-1.6-4.04-.94-3.24-.5-2.65-.18-2.2.02-1.87.18-1.62.3-1.44.4-1.3.5-1.17.6-1.1.7-1.03.8-.98.97-.95.84-.67" stroke="#5e5e5e" stroke-width="2" fill="none"/><path d="M511.96 330.34l1.02-.03-.05 1.1-2-.08.05-1.02z" fill="#5e5e5e"/><path d="M457.34 279.73l-12.5 8.27-2.48-8.93z" stroke="#5e5e5e" stroke-width="2" fill="#5e5e5e"/><path d="M240 462.88c0-3.32 2.7-6 6-6h336.18c3.3 0 6 2.68 6 6v26.22c0 3.3-2.7 6-6 6H246c-3.3 0-6-2.7-6-6z" stroke="#000" stroke-opacity="0" stroke-width="3" fill="#fff" fill-opacity="0"/><use xlink:href="#i" transform="matrix(1,0,0,1,244.9999999944156,461.87694764891006) translate(61.660493827160494 19.59027777777778)"/><use xlink:href="#j" transform="matrix(1,0,0,1,244.9999999944156,461.87694764891006) translate(179.99382716049382 19.59027777777778)"/><use xlink:href="#k" transform="matrix(1,0,0,1,244.9999999944156,461.87694764891006) translate(192.3395061728395 19.59027777777778)"/><path d="M803.35 223.1l-.1-4.78-.35-5.6-.57-5.43-.78-5.32-1-5.2-1.2-5.1-1.4-5.02-1.6-4.95-1.83-4.9-2.04-4.85-2.27-4.83-2.5-4.82-2.8-4.8-3.05-4.82-3.35-4.83-3.7-4.85-4.02-4.88-4.44-4.92-4.86-4.96-5.34-5.02-5.88-5.07-6.47-5.12-7.14-5.18-7.86-5.22-8.7-5.26-9.6-5.28-10.62-5.27-11.74-5.23-12.96-5.12-14.28-4.97-15.68-4.72-17.1-4.4-18.55-3.92-19.9-3.36-21.1-2.66-22.03-1.85-22.65-.96H501l-22.67.95-22.08 1.85-21.15 2.67-19.96 3.37-18.6 3.94-17.2 4.4-15.74 4.76-14.35 5-13.03 5.15-11.8 5.25-10.66 5.3-9.65 5.3-8.73 5.28-7.9 5.25-7.17 5.2-6.5 5.14-5.9 5.1-5.36 5.03-4.88 4.98-4.46 4.94-4.05 4.9-3.7 4.87-3.37 4.83-3.06 4.83-2.8 4.82-2.5 4.83-2.3 4.85-2.04 4.87-1.82 4.9-1.6 4.97-1.4 5.02-1.2 5.1-1 5.2-.54 3.67" stroke="#5e5e5e" stroke-width="2" fill="none"/><path d="M804.37 224.14l-1-.05-1 .03-.02-1.05 2-.04z" fill="#5e5e5e"/><path d="M220.8 221.4l-3.63-14.55 9.25.65z" stroke="#5e5e5e" stroke-width="2" fill="#5e5e5e"/><path d="M352.5 22.88c0-3.32 2.7-6 6-6h306.95c3.3 0 6 2.68 6 6V57.5c0 3.3-2.7 6-6 6H358.5c-3.3 0-6-2.7-6-6z" stroke="#000" stroke-opacity="0" stroke-width="3" fill="#fff" fill-opacity="0"/><use xlink:href="#i" transform="matrix(1,0,0,1,357.50301112542786,21.876947648910065) translate(46.660493827160494 22.40277777777778)"/><use xlink:href="#j" transform="matrix(1,0,0,1,357.50301112542786,21.876947648910065) translate(164.99382716049382 22.40277777777778)"/><use xlink:href="#k" transform="matrix(1,0,0,1,357.50301112542786,21.876947648910065) translate(177.3395061728395 22.40277777777778)"/><path d="M562.07 137.78c0 27.67-22.43 50.1-50.1 50.1-27.66 0-50.1-22.43-50.1-50.1 0-27.66 22.44-50.1 50.1-50.1 27.67 0 50.1 22.44 50.1 50.1z" stroke="#5e5e5e" stroke-width="3" fill="#fff"/><use xlink:href="#l" transform="matrix(1,0,0,1,466.87723932108355,92.6860667363903) translate(11.702530864197529 37.68402777777778)"/><use xlink:href="#m" transform="matrix(1,0,0,1,466.87723932108355,92.6860667363903) translate(9.764259259259257 64.35069444444446)"/><use xlink:href="#n" transform="matrix(1,0,0,1,466.87723932108355,92.6860667363903) translate(44.2087037037037 64.35069444444446)"/><path d="M511.97 220.58v-12.7" stroke="#5e5e5e" stroke-width="2" fill="none"/><path d="M512.97 221.63l-.98-.05-1.03.03v-1.05h2z" fill="#5e5e5e"/><path d="M511.97 192.62l4.64 14.26h-9.26z" stroke="#5e5e5e" stroke-width="2" fill="#5e5e5e"/><path d="M459.37 137.78l-105.8-.18-20.12 1.24-14.78 1.54-11.66 1.7-9.53 1.83-8.02 1.88-6.85 1.9-5.96 1.95-5.23 1.94-4.63 1.95-4.15 1.95-3.74 1.95-3.4 1.96-3.08 1.96-2.83 1.97-2.6 2-2.42 1.98-2.24 2-2.07 2.05-1.94 2.07-1.83 2.1-1.7 2.14-1.6 2.2-1.48 2.24-1.4 2.32-1.32 2.38-1.23 2.47-1.14 2.57-1.05 2.68-.98 2.8-.9 2.95-.78 3.1-.63 2.9" stroke="#5e5e5e" stroke-width="2" fill="none"/><path d="M460.43 136.78l-.05 1 .03 1h-1.05v-2z" fill="#5e5e5e"/><path d="M220.87 221.4l-3.3-14.62 9.23.85z" stroke="#5e5e5e" stroke-width="2" fill="#5e5e5e"/><defs><path fill="#333" d="M96-169c-40 0-48 33-48 73s9 75 48 75c24 0 41-14 43-38l32 2c-6 37-31 61-74 61-59 0-76-41-82-99-10-93 101-131 147-64 4 7 5 14 7 22l-32 3c-4-21-16-35-41-35" id="o"/><path fill="#333" d="M106-169C34-169 62-67 57 0H25v-261h32l-1 103c12-21 28-36 61-36 89 0 53 116 60 194h-32v-121c2-32-8-49-39-48" id="p"/><path fill="#333" d="M100-194c63 0 86 42 84 106H49c0 40 14 67 53 68 26 1 43-12 49-29l28 8c-11 28-37 45-77 45C44 4 14-33 15-96c1-61 26-98 85-98zm52 81c6-60-76-77-97-28-3 7-6 17-6 28h103" id="q"/><path fill="#333" d="M143 0L79-87 56-68V0H24v-261h32v163l83-92h37l-77 82L181 0h-38" id="r"/><path fill="#333" d="M100-194c62-1 85 37 85 99 1 63-27 99-86 99S16-35 15-95c0-66 28-99 85-99zM99-20c44 1 53-31 53-75 0-43-8-75-51-75s-53 32-53 75 10 74 51 75" id="s"/><path fill="#333" d="M84 4C-5 8 30-112 23-190h32v120c0 31 7 50 39 49 72-2 45-101 50-169h31l1 190h-30c-1-10 1-25-2-33-11 22-28 36-60 37" id="t"/><path fill="#333" d="M59-47c-2 24 18 29 38 22v24C64 9 27 4 27-40v-127H5v-23h24l9-43h21v43h35v23H59v120" id="u"/><g id="a"><use transform="matrix(0.06172839506172839,0,0,0.06172839506172839,0,0)" xlink:href="#o"/><use transform="matrix(0.06172839506172839,0,0,0.06172839506172839,11.11111111111111,0)" xlink:href="#p"/><use transform="matrix(0.06172839506172839,0,0,0.06172839506172839,23.45679012345679,0)" xlink:href="#q"/><use transform="matrix(0.06172839506172839,0,0,0.06172839506172839,35.80246913580247,0)" xlink:href="#o"/><use transform="matrix(0.06172839506172839,0,0,0.06172839506172839,46.91358024691358,0)" xlink:href="#r"/><use transform="matrix(0.06172839506172839,0,0,0.06172839506172839,58.0246913580247,0)" xlink:href="#s"/><use transform="matrix(0.06172839506172839,0,0,0.06172839506172839,70.37037037037038,0)" xlink:href="#t"/><use transform="matrix(0.06172839506172839,0,0,0.06172839506172839,82.71604938271606,0)" xlink:href="#u"/></g><path fill="#333" d="M210-169c-67 3-38 105-44 169h-31v-121c0-29-5-50-35-48C34-165 62-65 56 0H25l-1-190h30c1 10-1 24 2 32 10-44 99-50 107 0 11-21 27-35 58-36 85-2 47 119 55 194h-31v-121c0-29-5-49-35-48" id="v"/><path fill="#333" d="M24-231v-30h32v30H24zM24 0v-190h32V0H24" id="w"/><g id="b"><use transform="matrix(0.06172839506172839,0,0,0.06172839506172839,0,0)" xlink:href="#o"/><use transform="matrix(0.06172839506172839,0,0,0.06172839506172839,11.11111111111111,0)" xlink:href="#s"/><use transform="matrix(0.06172839506172839,0,0,0.06172839506172839,23.45679012345679,0)" xlink:href="#v"/><use transform="matrix(0.06172839506172839,0,0,0.06172839506172839,41.91358024691358,0)" xlink:href="#v"/><use transform="matrix(0.06172839506172839,0,0,0.06172839506172839,60.37037037037037,0)" xlink:href="#w"/><use transform="matrix(0.06172839506172839,0,0,0.06172839506172839,65.24691358024691,0)" xlink:href="#u"/></g><path fill="#333" d="M212-179c-10-28-35-45-73-45-59 0-87 40-87 99 0 60 29 101 89 101 43 0 62-24 78-52l27 14C228-24 195 4 139 4 59 4 22-46 18-125c-6-104 99-153 187-111 19 9 31 26 39 46" id="x"/><path fill="#333" d="M33 0v-248h34V0H33" id="y"/><path fill="#333" d="M0 4l72-265h28L28 4H0" id="z"/><path fill="#333" d="M30-248c118-7 216 8 213 122C240-48 200 0 122 0H30v-248zM63-27c89 8 146-16 146-99s-60-101-146-95v194" id="A"/><g id="c"><use transform="matrix(0.06172839506172839,0,0,0.06172839506172839,0,0)" xlink:href="#x"/><use transform="matrix(0.06172839506172839,0,0,0.06172839506172839,15.987654320987653,0)" xlink:href="#y"/><use transform="matrix(0.06172839506172839,0,0,0.06172839506172839,22.160493827160494,0)" xlink:href="#z"/><use transform="matrix(0.06172839506172839,0,0,0.06172839506172839,28.333333333333332,0)" xlink:href="#x"/><use transform="matrix(0.06172839506172839,0,0,0.06172839506172839,44.32098765432099,0)" xlink:href="#A"/></g><path fill="#333" d="M135-143c-3-34-86-38-87 0 15 53 115 12 119 90S17 21 10-45l28-5c4 36 97 45 98 0-10-56-113-15-118-90-4-57 82-63 122-42 12 7 21 19 24 35" id="B"/><path fill="#333" d="M117-194c89-4 53 116 60 194h-32v-121c0-31-8-49-39-48C34-167 62-67 57 0H25l-1-190h30c1 10-1 24 2 32 11-22 29-35 61-36" id="C"/><path fill="#333" d="M177-190C167-65 218 103 67 71c-23-6-38-20-44-43l32-5c15 47 100 32 89-28v-30C133-14 115 1 83 1 29 1 15-40 15-95c0-56 16-97 71-98 29-1 48 16 59 35 1-10 0-23 2-32h30zM94-22c36 0 50-32 50-73 0-42-14-75-50-75-39 0-46 34-46 75s6 73 46 73" id="D"/><g id="d"><use transform="matrix(0.06172839506172839,0,0,0.06172839506172839,0,0)" xlink:href="#u"/><use transform="matrix(0.06172839506172839,0,0,0.06172839506172839,6.172839506172839,0)" xlink:href="#q"/><use transform="matrix(0.06172839506172839,0,0,0.06172839506172839,18.51851851851852,0)" xlink:href="#B"/><use transform="matrix(0.06172839506172839,0,0,0.06172839506172839,29.62962962962963,0)" xlink:href="#u"/><use transform="matrix(0.06172839506172839,0,0,0.06172839506172839,35.80246913580247,0)" xlink:href="#w"/><use transform="matrix(0.06172839506172839,0,0,0.06172839506172839,40.67901234567901,0)" xlink:href="#C"/><use transform="matrix(0.06172839506172839,0,0,0.06172839506172839,53.02469135802469,0)" xlink:href="#D"/></g><path fill="#333" d="M185-189c-5-48-123-54-124 2 14 75 158 14 163 119 3 78-121 87-175 55-17-10-28-26-33-46l33-7c5 56 141 63 141-1 0-78-155-14-162-118-5-82 145-84 179-34 5 7 8 16 11 25" id="E"/><path fill="#333" d="M141-36C126-15 110 5 73 4 37 3 15-17 15-53c-1-64 63-63 125-63 3-35-9-54-41-54-24 1-41 7-42 31l-33-3c5-37 33-52 76-52 45 0 72 20 72 64v82c-1 20 7 32 28 27v20c-31 9-61-2-59-35zM48-53c0 20 12 33 32 33 41-3 63-29 60-74-43 2-92-5-92 41" id="F"/><g id="e"><use transform="matrix(0.06172839506172839,0,0,0.06172839506172839,0,0)" xlink:href="#E"/><use transform="matrix(0.06172839506172839,0,0,0.06172839506172839,14.814814814814813,0)" xlink:href="#u"/><use transform="matrix(0.06172839506172839,0,0,0.06172839506172839,20.98765432098765,0)" xlink:href="#F"/><use transform="matrix(0.06172839506172839,0,0,0.06172839506172839,33.33333333333333,0)" xlink:href="#D"/><use transform="matrix(0.06172839506172839,0,0,0.06172839506172839,45.679012345679006,0)" xlink:href="#w"/><use transform="matrix(0.06172839506172839,0,0,0.06172839506172839,50.55555555555555,0)" xlink:href="#C"/><use transform="matrix(0.06172839506172839,0,0,0.06172839506172839,62.90123456790123,0)" xlink:href="#D"/></g><path fill="#333" d="M30-248c87 1 191-15 191 75 0 78-77 80-158 76V0H30v-248zm33 125c57 0 124 11 124-50 0-59-68-47-124-48v98" id="G"/><path fill="#333" d="M114-163C36-179 61-72 57 0H25l-1-190h30c1 12-1 29 2 39 6-27 23-49 58-41v29" id="H"/><path fill="#333" d="M85-194c31 0 48 13 60 33l-1-100h32l1 261h-30c-2-10 0-23-3-31C134-8 116 4 85 4 32 4 16-35 15-94c0-66 23-100 70-100zm9 24c-40 0-46 34-46 75 0 40 6 74 45 74 42 0 51-32 51-76 0-42-9-74-50-73" id="I"/><g id="f"><use transform="matrix(0.06172839506172839,0,0,0.06172839506172839,0,0)" xlink:href="#G"/><use transform="matrix(0.06172839506172839,0,0,0.06172839506172839,14.814814814814813,0)" xlink:href="#H"/><use transform="matrix(0.06172839506172839,0,0,0.06172839506172839,22.160493827160494,0)" xlink:href="#s"/><use transform="matrix(0.06172839506172839,0,0,0.06172839506172839,34.50617283950617,0)" xlink:href="#I"/></g><path fill="#333" d="M115-194c55 1 70 41 70 98S169 2 115 4C84 4 66-9 55-30l1 105H24l-1-265h31l2 30c10-21 28-34 59-34zm-8 174c40 0 45-34 45-75s-6-73-45-74c-42 0-51 32-51 76 0 43 10 73 51 73" id="J"/><g id="g"><use transform="matrix(0.06172839506172839,0,0,0.06172839506172839,0,0)" xlink:href="#E"/><use transform="matrix(0.06172839506172839,0,0,0.06172839506172839,14.814814814814813,0)" xlink:href="#J"/><use transform="matrix(0.06172839506172839,0,0,0.06172839506172839,27.160493827160494,0)" xlink:href="#F"/><use transform="matrix(0.06172839506172839,0,0,0.06172839506172839,39.50617283950617,0)" xlink:href="#v"/><use transform="matrix(0.06172839506172839,0,0,0.06172839506172839,57.96296296296296,0)" xlink:href="#v"/><use transform="matrix(0.06172839506172839,0,0,0.06172839506172839,76.41975308641975,0)" xlink:href="#w"/><use transform="matrix(0.06172839506172839,0,0,0.06172839506172839,81.29629629629629,0)" xlink:href="#C"/><use transform="matrix(0.06172839506172839,0,0,0.06172839506172839,93.64197530864197,0)" xlink:href="#D"/></g><path fill="#333" d="M127-220V0H93v-220H8v-28h204v28h-85" id="K"/><g id="h"><use transform="matrix(0.06172839506172839,0,0,0.06172839506172839,0,0)" xlink:href="#K"/><use transform="matrix(0.06172839506172839,0,0,0.06172839506172839,11.049382716049381,0)" xlink:href="#q"/><use transform="matrix(0.06172839506172839,0,0,0.06172839506172839,23.39506172839506,0)" xlink:href="#B"/><use transform="matrix(0.06172839506172839,0,0,0.06172839506172839,34.50617283950617,0)" xlink:href="#u"/><use transform="matrix(0.06172839506172839,0,0,0.06172839506172839,40.67901234567901,0)" xlink:href="#B"/></g><path fill="#333" d="M233-177c-1 41-23 64-60 70L243 0h-38l-65-103H63V0H30v-248c88 3 205-21 203 71zM63-129c60-2 137 13 137-47 0-61-80-42-137-45v92" id="L"/><g id="i"><use transform="matrix(0.06172839506172839,0,0,0.06172839506172839,0,0)" xlink:href="#L"/><use transform="matrix(0.06172839506172839,0,0,0.06172839506172839,15.987654320987653,0)" xlink:href="#q"/><use transform="matrix(0.06172839506172839,0,0,0.06172839506172839,28.333333333333332,0)" xlink:href="#D"/><use transform="matrix(0.06172839506172839,0,0,0.06172839506172839,40.67901234567901,0)" xlink:href="#H"/><use transform="matrix(0.06172839506172839,0,0,0.06172839506172839,48.02469135802469,0)" xlink:href="#q"/><use transform="matrix(0.06172839506172839,0,0,0.06172839506172839,60.37037037037037,0)" xlink:href="#B"/><use transform="matrix(0.06172839506172839,0,0,0.06172839506172839,71.48148148148148,0)" xlink:href="#B"/><use transform="matrix(0.06172839506172839,0,0,0.06172839506172839,82.5925925925926,0)" xlink:href="#w"/><use transform="matrix(0.06172839506172839,0,0,0.06172839506172839,87.46913580246914,0)" xlink:href="#s"/><use transform="matrix(0.06172839506172839,0,0,0.06172839506172839,99.81481481481482,0)" xlink:href="#C"/></g><use transform="matrix(0.06172839506172839,0,0,0.06172839506172839,0,0)" xlink:href="#z" id="j"/><path fill="#333" d="M24 0v-261h32V0H24" id="M"/><path fill="#333" d="M115-194c53 0 69 39 70 98 0 66-23 100-70 100C84 3 66-7 56-30L54 0H23l1-261h32v101c10-23 28-34 59-34zm-8 174c40 0 45-34 45-75 0-40-5-75-45-74-42 0-51 32-51 76 0 43 10 73 51 73" id="N"/><g id="k"><use transform="matrix(0.06172839506172839,0,0,0.06172839506172839,0,0)" xlink:href="#L"/><use transform="matrix(0.06172839506172839,0,0,0.06172839506172839,15.987654320987653,0)" xlink:href="#s"/><use transform="matrix(0.06172839506172839,0,0,0.06172839506172839,28.333333333333332,0)" xlink:href="#M"/><use transform="matrix(0.06172839506172839,0,0,0.06172839506172839,33.20987654320987,0)" xlink:href="#M"/><use transform="matrix(0.06172839506172839,0,0,0.06172839506172839,38.08641975308642,0)" xlink:href="#N"/><use transform="matrix(0.06172839506172839,0,0,0.06172839506172839,50.432098765432094,0)" xlink:href="#F"/><use transform="matrix(0.06172839506172839,0,0,0.06172839506172839,62.77777777777777,0)" xlink:href="#o"/><use transform="matrix(0.06172839506172839,0,0,0.06172839506172839,73.88888888888889,0)" xlink:href="#r"/></g><path fill="#333" d="M240 0l2-218c-23 76-54 145-80 218h-23L58-218 59 0H30v-248h44l77 211c21-75 51-140 76-211h43V0h-30" id="O"/><path fill="#333" d="M179-190L93 31C79 59 56 82 12 73V49c39 6 53-20 64-50L1-190h34L92-34l54-156h33" id="P"/><g id="l"><use transform="matrix(0.06172839506172839,0,0,0.06172839506172839,0,0)" xlink:href="#O"/><use transform="matrix(0.06172839506172839,0,0,0.06172839506172839,18.456790123456788,0)" xlink:href="#F"/><use transform="matrix(0.06172839506172839,0,0,0.06172839506172839,30.80246913580247,0)" xlink:href="#P"/><use transform="matrix(0.06172839506172839,0,0,0.06172839506172839,41.91358024691358,0)" xlink:href="#N"/><use transform="matrix(0.06172839506172839,0,0,0.06172839506172839,54.25925925925926,0)" xlink:href="#q"/></g><path fill="#333" d="M101-234c-31-9-42 10-38 44h38v23H63V0H32v-167H5v-23h27c-7-52 17-82 69-68v24" id="Q"/><g id="m"><use transform="matrix(0.06172839506172839,0,0,0.06172839506172839,0,0)" xlink:href="#Q"/><use transform="matrix(0.06172839506172839,0,0,0.06172839506172839,6.172839506172839,0)" xlink:href="#w"/><use transform="matrix(0.06172839506172839,0,0,0.06172839506172839,11.049382716049383,0)" xlink:href="#M"/><use transform="matrix(0.06172839506172839,0,0,0.06172839506172839,15.925925925925926,0)" xlink:href="#q"/></g><g id="n"><use transform="matrix(0.06172839506172839,0,0,0.06172839506172839,0,0)" xlink:href="#N"/><use transform="matrix(0.06172839506172839,0,0,0.06172839506172839,12.345679012345679,0)" xlink:href="#t"/><use transform="matrix(0.06172839506172839,0,0,0.06172839506172839,24.691358024691358,0)" xlink:href="#D"/></g></defs></g></svg>