<svg xmlns="http://www.w3.org/2000/svg" xmlns:xlink="http://www.w3.org/1999/xlink" xmlns:lucid="lucid" width="731.47" height="511.6"><g transform="translate(-146.2652066371822 3.8998078523624358)" lucid:page-tab-id="_FawUxP1lJ8u"><path d="M0 0h1024v512H0z" fill="#fff"/><path d="M483.97 266c0-3.3 2.68-6 6-6h361.76c3.32 0 6 2.7 6 6v127.2c0 3.33-2.68 6-6 6H489.97c-3.32 0-6-2.67-6-6z" fill="#fff"/><path d="M485.47 266c0 .83-.67 1.5-1.5 1.5s-1.5-.67-1.5-1.5.67-1.5 1.5-1.5 1.5.67 1.5 1.5zm1.9-4.1c0 .82-.68 1.5-1.5 1.5-.84 0-1.5-.68-1.5-1.5 0-.83.66-1.5 1.5-1.5.82 0 1.5.67 1.5 1.5zm4.1-1.9c0 .83-.67 1.5-1.5 1.5s-1.5-.67-1.5-1.5.67-1.5 1.5-1.5 1.5.67 1.5 1.5zm6.03 0c0 .83-.67 1.5-1.5 1.5s-1.5-.67-1.5-1.5.67-1.5 1.5-1.5 1.5.67 1.5 1.5zm6.03 0c0 .83-.68 1.5-1.5 1.5-.83 0-1.5-.67-1.5-1.5s.67-1.5 1.5-1.5c.82 0 1.5.67 1.5 1.5zm6.03 0c0 .83-.68 1.5-1.5 1.5-.83 0-1.5-.67-1.5-1.5s.67-1.5 1.5-1.5c.82 0 1.5.67 1.5 1.5zm6.03 0c0 .83-.7 1.5-1.5 1.5-.84 0-1.5-.67-1.5-1.5s.66-1.5 1.5-1.5c.8 0 1.5.67 1.5 1.5zm6 0c0 .83-.66 1.5-1.5 1.5-.8 0-1.5-.67-1.5-1.5s.7-1.5 1.5-1.5c.84 0 1.5.67 1.5 1.5zm6.04 0c0 .83-.67 1.5-1.5 1.5-.82 0-1.5-.67-1.5-1.5s.68-1.5 1.5-1.5c.83 0 1.5.67 1.5 1.5zm6.03 0c0 .83-.67 1.5-1.5 1.5-.82 0-1.5-.67-1.5-1.5s.68-1.5 1.5-1.5c.83 0 1.5.67 1.5 1.5zm6.03 0c0 .83-.67 1.5-1.5 1.5s-1.5-.67-1.5-1.5.67-1.5 1.5-1.5 1.5.67 1.5 1.5zm6.03 0c0 .83-.67 1.5-1.5 1.5s-1.5-.67-1.5-1.5.67-1.5 1.5-1.5 1.5.67 1.5 1.5zm6.03 0c0 .83-.67 1.5-1.5 1.5s-1.5-.67-1.5-1.5.67-1.5 1.5-1.5 1.5.67 1.5 1.5zm6.03 0c0 .83-.68 1.5-1.5 1.5-.84 0-1.5-.67-1.5-1.5s.66-1.5 1.5-1.5c.82 0 1.5.67 1.5 1.5zm6.02 0c0 .83-.67 1.5-1.5 1.5s-1.5-.67-1.5-1.5.67-1.5 1.5-1.5 1.5.67 1.5 1.5zm6.03 0c0 .83-.67 1.5-1.5 1.5s-1.5-.67-1.5-1.5.67-1.5 1.5-1.5 1.5.67 1.5 1.5zm6.03 0c0 .83-.67 1.5-1.5 1.5s-1.5-.67-1.5-1.5.67-1.5 1.5-1.5 1.5.67 1.5 1.5zm6.03 0c0 .83-.66 1.5-1.5 1.5-.82 0-1.5-.67-1.5-1.5s.68-1.5 1.5-1.5c.84 0 1.5.67 1.5 1.5zm6.04 0c0 .83-.67 1.5-1.5 1.5s-1.5-.67-1.5-1.5.67-1.5 1.5-1.5 1.5.67 1.5 1.5zm6.03 0c0 .83-.67 1.5-1.5 1.5s-1.5-.67-1.5-1.5.67-1.5 1.5-1.5 1.5.67 1.5 1.5zm6.03 0c0 .83-.67 1.5-1.5 1.5s-1.5-.67-1.5-1.5.67-1.5 1.5-1.5 1.5.67 1.5 1.5zm6.03 0c0 .83-.67 1.5-1.5 1.5s-1.5-.67-1.5-1.5.67-1.5 1.5-1.5 1.5.67 1.5 1.5zm6.03 0c0 .83-.68 1.5-1.5 1.5-.83 0-1.5-.67-1.5-1.5s.67-1.5 1.5-1.5c.82 0 1.5.67 1.5 1.5zm6.03 0c0 .83-.7 1.5-1.5 1.5-.84 0-1.5-.67-1.5-1.5s.66-1.5 1.5-1.5c.8 0 1.5.67 1.5 1.5zm6.02 0c0 .83-.68 1.5-1.5 1.5-.83 0-1.5-.67-1.5-1.5s.67-1.5 1.5-1.5c.82 0 1.5.67 1.5 1.5zm6.02 0c0 .83-.67 1.5-1.5 1.5-.82 0-1.5-.67-1.5-1.5s.68-1.5 1.5-1.5c.83 0 1.5.67 1.5 1.5zm6.03 0c0 .83-.67 1.5-1.5 1.5-.82 0-1.5-.67-1.5-1.5s.68-1.5 1.5-1.5c.83 0 1.5.67 1.5 1.5zm6.03 0c0 .83-.67 1.5-1.5 1.5-.82 0-1.5-.67-1.5-1.5s.68-1.5 1.5-1.5c.83 0 1.5.67 1.5 1.5zm6.03 0c0 .83-.67 1.5-1.5 1.5s-1.5-.67-1.5-1.5.67-1.5 1.5-1.5 1.5.67 1.5 1.5zm6.03 0c0 .83-.67 1.5-1.5 1.5s-1.5-.67-1.5-1.5.67-1.5 1.5-1.5 1.5.67 1.5 1.5zm6.03 0c0 .83-.68 1.5-1.5 1.5-.84 0-1.5-.67-1.5-1.5s.66-1.5 1.5-1.5c.82 0 1.5.67 1.5 1.5zm6.02 0c0 .83-.67 1.5-1.5 1.5s-1.5-.67-1.5-1.5.67-1.5 1.5-1.5 1.5.67 1.5 1.5zm6.03 0c0 .83-.67 1.5-1.5 1.5s-1.5-.67-1.5-1.5.67-1.5 1.5-1.5 1.5.67 1.5 1.5zm6.03 0c0 .83-.67 1.5-1.5 1.5s-1.5-.67-1.5-1.5.67-1.5 1.5-1.5 1.5.67 1.5 1.5zm6.03 0c0 .83-.66 1.5-1.5 1.5-.82 0-1.5-.67-1.5-1.5s.68-1.5 1.5-1.5c.84 0 1.5.67 1.5 1.5zm6.04 0c0 .83-.67 1.5-1.5 1.5s-1.5-.67-1.5-1.5.67-1.5 1.5-1.5 1.5.67 1.5 1.5zm6.03 0c0 .83-.67 1.5-1.5 1.5s-1.5-.67-1.5-1.5.67-1.5 1.5-1.5 1.5.67 1.5 1.5zm6.03 0c0 .83-.67 1.5-1.5 1.5s-1.5-.67-1.5-1.5.67-1.5 1.5-1.5 1.5.67 1.5 1.5zm6.03 0c0 .83-.67 1.5-1.5 1.5s-1.5-.67-1.5-1.5.67-1.5 1.5-1.5 1.5.67 1.5 1.5zm6.03 0c0 .83-.67 1.5-1.5 1.5s-1.5-.67-1.5-1.5.67-1.5 1.5-1.5 1.5.67 1.5 1.5zm6.03 0c0 .83-.68 1.5-1.5 1.5-.84 0-1.5-.67-1.5-1.5s.66-1.5 1.5-1.5c.82 0 1.5.67 1.5 1.5zm6.02 0c0 .83-.68 1.5-1.5 1.5-.83 0-1.5-.67-1.5-1.5s.67-1.5 1.5-1.5c.82 0 1.5.67 1.5 1.5zm6.03 0c0 .83-.68 1.5-1.5 1.5-.83 0-1.5-.67-1.5-1.5s.67-1.5 1.5-1.5c.82 0 1.5.67 1.5 1.5zm6.03 0c0 .83-.68 1.5-1.5 1.5-.83 0-1.5-.67-1.5-1.5s.67-1.5 1.5-1.5c.82 0 1.5.67 1.5 1.5zm6.02 0c0 .83-.67 1.5-1.5 1.5-.82 0-1.5-.67-1.5-1.5s.68-1.5 1.5-1.5c.83 0 1.5.67 1.5 1.5zm6.03 0c0 .83-.67 1.5-1.5 1.5-.82 0-1.5-.67-1.5-1.5s.68-1.5 1.5-1.5c.83 0 1.5.67 1.5 1.5zm6.03 0c0 .83-.67 1.5-1.5 1.5-.82 0-1.5-.67-1.5-1.5s.68-1.5 1.5-1.5c.83 0 1.5.67 1.5 1.5zm6.03 0c0 .83-.68 1.5-1.5 1.5-.84 0-1.5-.67-1.5-1.5s.66-1.5 1.5-1.5c.82 0 1.5.67 1.5 1.5zm6.02 0c0 .83-.67 1.5-1.5 1.5s-1.5-.67-1.5-1.5.67-1.5 1.5-1.5 1.5.67 1.5 1.5zm6.03 0c0 .83-.67 1.5-1.5 1.5s-1.5-.67-1.5-1.5.67-1.5 1.5-1.5 1.5.67 1.5 1.5zm6.03 0c0 .83-.67 1.5-1.5 1.5s-1.5-.67-1.5-1.5.67-1.5 1.5-1.5 1.5.67 1.5 1.5zm6.03 0c0 .83-.66 1.5-1.5 1.5-.82 0-1.5-.67-1.5-1.5s.68-1.5 1.5-1.5c.84 0 1.5.67 1.5 1.5zm6.04 0c0 .83-.67 1.5-1.5 1.5s-1.5-.67-1.5-1.5.67-1.5 1.5-1.5 1.5.67 1.5 1.5zm6.03 0c0 .83-.67 1.5-1.5 1.5s-1.5-.67-1.5-1.5.67-1.5 1.5-1.5 1.5.67 1.5 1.5zm6.03 0c0 .83-.67 1.5-1.5 1.5s-1.5-.67-1.5-1.5.67-1.5 1.5-1.5 1.5.67 1.5 1.5zm6.03 0c0 .83-.67 1.5-1.5 1.5s-1.5-.67-1.5-1.5.67-1.5 1.5-1.5 1.5.67 1.5 1.5zm6.03 0c0 .83-.67 1.5-1.5 1.5s-1.5-.67-1.5-1.5.67-1.5 1.5-1.5 1.5.67 1.5 1.5zm6.03 0c0 .83-.68 1.5-1.5 1.5-.84 0-1.5-.67-1.5-1.5s.66-1.5 1.5-1.5c.82 0 1.5.67 1.5 1.5zm6.02 0c0 .83-.67 1.5-1.5 1.5s-1.5-.67-1.5-1.5.67-1.5 1.5-1.5 1.5.67 1.5 1.5zm6.03 0c0 .83-.68 1.5-1.5 1.5-.83 0-1.5-.67-1.5-1.5s.67-1.5 1.5-1.5c.82 0 1.5.67 1.5 1.5zm6.03 0c0 .83-.68 1.5-1.5 1.5-.83 0-1.5-.67-1.5-1.5s.67-1.5 1.5-1.5c.82 0 1.5.67 1.5 1.5zm6.03 0c0 .83-.67 1.5-1.5 1.5-.82 0-1.5-.67-1.5-1.5s.68-1.5 1.5-1.5c.83 0 1.5.67 1.5 1.5zm6.03 0c0 .83-.67 1.5-1.5 1.5-.82 0-1.5-.67-1.5-1.5s.68-1.5 1.5-1.5c.83 0 1.5.67 1.5 1.5zm4.1 1.9c0 .82-.66 1.5-1.5 1.5-.82 0-1.5-.68-1.5-1.5 0-.83.68-1.5 1.5-1.5.84 0 1.5.67 1.5 1.5zm1.9 4.1c0 .83-.67 1.5-1.5 1.5-.82 0-1.5-.67-1.5-1.5s.68-1.5 1.5-1.5c.83 0 1.5.67 1.5 1.5zm0 6.06c0 .83-.67 1.5-1.5 1.5-.82 0-1.5-.67-1.5-1.5s.68-1.5 1.5-1.5c.83 0 1.5.67 1.5 1.5zm0 6.06c0 .82-.67 1.5-1.5 1.5-.82 0-1.5-.68-1.5-1.5 0-.83.68-1.5 1.5-1.5.83 0 1.5.67 1.5 1.5zm0 6.05c0 .83-.67 1.5-1.5 1.5-.82 0-1.5-.67-1.5-1.5s.68-1.5 1.5-1.5c.83 0 1.5.67 1.5 1.5zm0 6.06c0 .83-.67 1.5-1.5 1.5-.82 0-1.5-.67-1.5-1.5s.68-1.5 1.5-1.5c.83 0 1.5.67 1.5 1.5zm0 6.06c0 .82-.67 1.5-1.5 1.5-.82 0-1.5-.68-1.5-1.5 0-.84.68-1.5 1.5-1.5.83 0 1.5.66 1.5 1.5zm0 6.05c0 .82-.67 1.5-1.5 1.5-.82 0-1.5-.68-1.5-1.5 0-.83.68-1.5 1.5-1.5.83 0 1.5.67 1.5 1.5zm0 6.05c0 .83-.67 1.5-1.5 1.5-.82 0-1.5-.67-1.5-1.5 0-.82.68-1.5 1.5-1.5.83 0 1.5.68 1.5 1.5zm0 6.06c0 .83-.67 1.5-1.5 1.5-.82 0-1.5-.67-1.5-1.5s.68-1.5 1.5-1.5c.83 0 1.5.67 1.5 1.5zm0 6.06c0 .83-.67 1.5-1.5 1.5-.82 0-1.5-.67-1.5-1.5s.68-1.5 1.5-1.5c.83 0 1.5.67 1.5 1.5zm0 6.06c0 .83-.67 1.5-1.5 1.5-.82 0-1.5-.67-1.5-1.5s.68-1.5 1.5-1.5c.83 0 1.5.67 1.5 1.5zm0 6.05c0 .83-.67 1.5-1.5 1.5-.82 0-1.5-.67-1.5-1.5 0-.82.68-1.5 1.5-1.5.83 0 1.5.68 1.5 1.5zm0 6.06c0 .82-.67 1.5-1.5 1.5-.82 0-1.5-.68-1.5-1.5 0-.84.68-1.5 1.5-1.5.83 0 1.5.66 1.5 1.5zm0 6.05c0 .83-.67 1.5-1.5 1.5-.82 0-1.5-.67-1.5-1.5s.68-1.5 1.5-1.5c.83 0 1.5.67 1.5 1.5zm0 6.06c0 .84-.67 1.5-1.5 1.5-.82 0-1.5-.66-1.5-1.5 0-.82.68-1.5 1.5-1.5.83 0 1.5.68 1.5 1.5zm0 6.07c0 .82-.67 1.5-1.5 1.5-.82 0-1.5-.68-1.5-1.5 0-.83.68-1.5 1.5-1.5.83 0 1.5.67 1.5 1.5zm0 6.05c0 .83-.67 1.5-1.5 1.5-.82 0-1.5-.67-1.5-1.5s.68-1.5 1.5-1.5c.83 0 1.5.67 1.5 1.5zm0 6.06c0 .83-.67 1.5-1.5 1.5-.82 0-1.5-.67-1.5-1.5s.68-1.5 1.5-1.5c.83 0 1.5.67 1.5 1.5zm0 6.06c0 .83-.67 1.5-1.5 1.5-.82 0-1.5-.67-1.5-1.5s.68-1.5 1.5-1.5c.83 0 1.5.67 1.5 1.5zm0 6.06c0 .82-.67 1.5-1.5 1.5-.82 0-1.5-.68-1.5-1.5 0-.83.68-1.5 1.5-1.5.83 0 1.5.67 1.5 1.5zm0 6.05c0 .83-.67 1.5-1.5 1.5-.82 0-1.5-.67-1.5-1.5 0-.82.68-1.5 1.5-1.5.83 0 1.5.68 1.5 1.5zm0 6.06c0 .84-.67 1.5-1.5 1.5-.82 0-1.5-.66-1.5-1.5 0-.82.68-1.5 1.5-1.5.83 0 1.5.68 1.5 1.5zm-1.9 4.12c0 .82-.66 1.5-1.5 1.5-.82 0-1.5-.68-1.5-1.5 0-.83.68-1.5 1.5-1.5.84 0 1.5.67 1.5 1.5zm-4.1 1.9c0 .82-.67 1.5-1.5 1.5-.82 0-1.5-.68-1.5-1.5 0-.84.68-1.5 1.5-1.5.83 0 1.5.66 1.5 1.5zm-6.02 0c0 .82-.67 1.5-1.5 1.5-.82 0-1.5-.68-1.5-1.5 0-.84.68-1.5 1.5-1.5.83 0 1.5.66 1.5 1.5zm-6.02 0c0 .82-.68 1.5-1.5 1.5-.83 0-1.5-.68-1.5-1.5 0-.84.67-1.5 1.5-1.5.82 0 1.5.66 1.5 1.5zm-6.03 0c0 .82-.68 1.5-1.5 1.5-.83 0-1.5-.68-1.5-1.5 0-.84.67-1.5 1.5-1.5.82 0 1.5.66 1.5 1.5zm-6.03 0c0 .82-.67 1.5-1.5 1.5s-1.5-.68-1.5-1.5c0-.84.67-1.5 1.5-1.5s1.5.66 1.5 1.5zm-6.03 0c0 .82-.68 1.5-1.5 1.5-.84 0-1.5-.68-1.5-1.5 0-.84.66-1.5 1.5-1.5.82 0 1.5.66 1.5 1.5zm-6.04 0c0 .82-.67 1.5-1.5 1.5s-1.5-.68-1.5-1.5c0-.84.67-1.5 1.5-1.5s1.5.66 1.5 1.5zm-6.03 0c0 .82-.67 1.5-1.5 1.5s-1.5-.68-1.5-1.5c0-.84.67-1.5 1.5-1.5s1.5.66 1.5 1.5zm-6.03 0c0 .82-.67 1.5-1.5 1.5s-1.5-.68-1.5-1.5c0-.84.67-1.5 1.5-1.5s1.5.66 1.5 1.5zm-6.03 0c0 .82-.67 1.5-1.5 1.5s-1.5-.68-1.5-1.5c0-.84.67-1.5 1.5-1.5s1.5.66 1.5 1.5zm-6.03 0c0 .82-.67 1.5-1.5 1.5s-1.5-.68-1.5-1.5c0-.84.67-1.5 1.5-1.5s1.5.66 1.5 1.5zm-6.03 0c0 .82-.66 1.5-1.5 1.5-.82 0-1.5-.68-1.5-1.5 0-.84.68-1.5 1.5-1.5.84 0 1.5.66 1.5 1.5zm-6.02 0c0 .82-.67 1.5-1.5 1.5s-1.5-.68-1.5-1.5c0-.84.67-1.5 1.5-1.5s1.5.66 1.5 1.5zm-6.03 0c0 .82-.67 1.5-1.5 1.5s-1.5-.68-1.5-1.5c0-.84.67-1.5 1.5-1.5s1.5.66 1.5 1.5zm-6.03 0c0 .82-.67 1.5-1.5 1.5s-1.5-.68-1.5-1.5c0-.84.67-1.5 1.5-1.5s1.5.66 1.5 1.5zm-6.03 0c0 .82-.68 1.5-1.5 1.5-.84 0-1.5-.68-1.5-1.5 0-.84.66-1.5 1.5-1.5.82 0 1.5.66 1.5 1.5zm-6.04 0c0 .82-.67 1.5-1.5 1.5-.82 0-1.5-.68-1.5-1.5 0-.84.68-1.5 1.5-1.5.83 0 1.5.66 1.5 1.5zm-6.03 0c0 .82-.67 1.5-1.5 1.5-.82 0-1.5-.68-1.5-1.5 0-.84.68-1.5 1.5-1.5.83 0 1.5.66 1.5 1.5zm-6.03 0c0 .82-.67 1.5-1.5 1.5-.82 0-1.5-.68-1.5-1.5 0-.84.68-1.5 1.5-1.5.83 0 1.5.66 1.5 1.5zm-6.02 0c0 .82-.68 1.5-1.5 1.5-.83 0-1.5-.68-1.5-1.5 0-.84.67-1.5 1.5-1.5.82 0 1.5.66 1.5 1.5zm-6.03 0c0 .82-.68 1.5-1.5 1.5-.83 0-1.5-.68-1.5-1.5 0-.84.67-1.5 1.5-1.5.82 0 1.5.66 1.5 1.5zm-6.03 0c0 .82-.68 1.5-1.5 1.5-.83 0-1.5-.68-1.5-1.5 0-.84.67-1.5 1.5-1.5.82 0 1.5.66 1.5 1.5zm-6.03 0c0 .82-.68 1.5-1.5 1.5-.84 0-1.5-.68-1.5-1.5 0-.84.66-1.5 1.5-1.5.82 0 1.5.66 1.5 1.5zm-6.04 0c0 .82-.67 1.5-1.5 1.5s-1.5-.68-1.5-1.5c0-.84.67-1.5 1.5-1.5s1.5.66 1.5 1.5zm-6.03 0c0 .82-.67 1.5-1.5 1.5s-1.5-.68-1.5-1.5c0-.84.67-1.5 1.5-1.5s1.5.66 1.5 1.5zm-6.03 0c0 .82-.67 1.5-1.5 1.5s-1.5-.68-1.5-1.5c0-.84.67-1.5 1.5-1.5s1.5.66 1.5 1.5zm-6.03 0c0 .82-.67 1.5-1.5 1.5s-1.5-.68-1.5-1.5c0-.84.67-1.5 1.5-1.5s1.5.66 1.5 1.5zm-6.03 0c0 .82-.67 1.5-1.5 1.5s-1.5-.68-1.5-1.5c0-.84.67-1.5 1.5-1.5s1.5.66 1.5 1.5zm-6.03 0c0 .82-.66 1.5-1.5 1.5-.82 0-1.5-.68-1.5-1.5 0-.84.68-1.5 1.5-1.5.84 0 1.5.66 1.5 1.5zm-6.02 0c0 .82-.67 1.5-1.5 1.5s-1.5-.68-1.5-1.5c0-.84.67-1.5 1.5-1.5s1.5.66 1.5 1.5zm-6.03 0c0 .82-.67 1.5-1.5 1.5s-1.5-.68-1.5-1.5c0-.84.67-1.5 1.5-1.5s1.5.66 1.5 1.5zm-6.03 0c0 .82-.67 1.5-1.5 1.5s-1.5-.68-1.5-1.5c0-.84.67-1.5 1.5-1.5s1.5.66 1.5 1.5zm-6.03 0c0 .82-.68 1.5-1.5 1.5-.84 0-1.5-.68-1.5-1.5 0-.84.66-1.5 1.5-1.5.82 0 1.5.66 1.5 1.5zm-6.04 0c0 .82-.67 1.5-1.5 1.5s-1.5-.68-1.5-1.5c0-.84.67-1.5 1.5-1.5s1.5.66 1.5 1.5zm-6.03 0c0 .82-.67 1.5-1.5 1.5s-1.5-.68-1.5-1.5c0-.84.67-1.5 1.5-1.5s1.5.66 1.5 1.5zm-6.03 0c0 .82-.67 1.5-1.5 1.5-.82 0-1.5-.68-1.5-1.5 0-.84.68-1.5 1.5-1.5.83 0 1.5.66 1.5 1.5zm-6.03 0c0 .82-.67 1.5-1.5 1.5-.82 0-1.5-.68-1.5-1.5 0-.84.68-1.5 1.5-1.5.83 0 1.5.66 1.5 1.5zm-6.03 0c0 .82-.67 1.5-1.5 1.5-.82 0-1.5-.68-1.5-1.5 0-.84.68-1.5 1.5-1.5.83 0 1.5.66 1.5 1.5zm-6.02 0c0 .82-.68 1.5-1.5 1.5-.83 0-1.5-.68-1.5-1.5 0-.84.67-1.5 1.5-1.5.82 0 1.5.66 1.5 1.5zm-6.03 0c0 .82-.7 1.5-1.5 1.5-.84 0-1.5-.68-1.5-1.5 0-.84.66-1.5 1.5-1.5.8 0 1.5.66 1.5 1.5zm-6.04 0c0 .82-.68 1.5-1.5 1.5-.83 0-1.5-.68-1.5-1.5 0-.84.67-1.5 1.5-1.5.82 0 1.5.66 1.5 1.5zm-6.03 0c0 .82-.67 1.5-1.5 1.5s-1.5-.68-1.5-1.5c0-.84.67-1.5 1.5-1.5s1.5.66 1.5 1.5zm-6.03 0c0 .82-.67 1.5-1.5 1.5s-1.5-.68-1.5-1.5c0-.84.67-1.5 1.5-1.5s1.5.66 1.5 1.5zm-6.03 0c0 .82-.67 1.5-1.5 1.5s-1.5-.68-1.5-1.5c0-.84.67-1.5 1.5-1.5s1.5.66 1.5 1.5zm-6.03 0c0 .82-.67 1.5-1.5 1.5s-1.5-.68-1.5-1.5c0-.84.67-1.5 1.5-1.5s1.5.66 1.5 1.5zm-6.03 0c0 .82-.66 1.5-1.5 1.5-.82 0-1.5-.68-1.5-1.5 0-.84.68-1.5 1.5-1.5.84 0 1.5.66 1.5 1.5zm-6.02 0c0 .82-.67 1.5-1.5 1.5s-1.5-.68-1.5-1.5c0-.84.67-1.5 1.5-1.5s1.5.66 1.5 1.5zm-6.03 0c0 .82-.67 1.5-1.5 1.5s-1.5-.68-1.5-1.5c0-.84.67-1.5 1.5-1.5s1.5.66 1.5 1.5zm-6.03 0c0 .82-.67 1.5-1.5 1.5s-1.5-.68-1.5-1.5c0-.84.67-1.5 1.5-1.5s1.5.66 1.5 1.5zm-6.03 0c0 .82-.68 1.5-1.5 1.5-.84 0-1.5-.68-1.5-1.5 0-.84.66-1.5 1.5-1.5.82 0 1.5.66 1.5 1.5zm-6.04 0c0 .82-.67 1.5-1.5 1.5s-1.5-.68-1.5-1.5c0-.84.67-1.5 1.5-1.5s1.5.66 1.5 1.5zm-6.03 0c0 .82-.67 1.5-1.5 1.5s-1.5-.68-1.5-1.5c0-.84.67-1.5 1.5-1.5s1.5.66 1.5 1.5zm-6.03 0c0 .82-.67 1.5-1.5 1.5s-1.5-.68-1.5-1.5c0-.84.67-1.5 1.5-1.5s1.5.66 1.5 1.5zm-6.03 0c0 .82-.67 1.5-1.5 1.5-.82 0-1.5-.68-1.5-1.5 0-.84.68-1.5 1.5-1.5.83 0 1.5.66 1.5 1.5zm-6.03 0c0 .82-.67 1.5-1.5 1.5-.82 0-1.5-.68-1.5-1.5 0-.84.68-1.5 1.5-1.5.83 0 1.5.66 1.5 1.5zm-6.03 0c0 .82-.66 1.5-1.5 1.5-.8 0-1.5-.68-1.5-1.5 0-.84.7-1.5 1.5-1.5.84 0 1.5.66 1.5 1.5zm-6 0c0 .82-.7 1.5-1.5 1.5-.84 0-1.5-.68-1.5-1.5 0-.84.66-1.5 1.5-1.5.8 0 1.5.66 1.5 1.5zm-6.04 0c0 .82-.68 1.5-1.5 1.5-.83 0-1.5-.68-1.5-1.5 0-.84.67-1.5 1.5-1.5.82 0 1.5.66 1.5 1.5zm-6.03 0c0 .82-.68 1.5-1.5 1.5-.83 0-1.5-.68-1.5-1.5 0-.84.67-1.5 1.5-1.5.82 0 1.5.66 1.5 1.5zm-6.03 0c0 .82-.67 1.5-1.5 1.5s-1.5-.68-1.5-1.5c0-.84.67-1.5 1.5-1.5s1.5.66 1.5 1.5zm-6.03 0c0 .82-.67 1.5-1.5 1.5s-1.5-.68-1.5-1.5c0-.84.67-1.5 1.5-1.5s1.5.66 1.5 1.5zm-4.1-1.9c0 .82-.68 1.5-1.5 1.5-.84 0-1.5-.68-1.5-1.5 0-.83.66-1.5 1.5-1.5.82 0 1.5.67 1.5 1.5zm-1.9-4.1c0 .82-.67 1.5-1.5 1.5s-1.5-.68-1.5-1.5c0-.84.67-1.5 1.5-1.5s1.5.66 1.5 1.5zm0-6.07c0 .83-.67 1.5-1.5 1.5s-1.5-.67-1.5-1.5c0-.82.67-1.5 1.5-1.5s1.5.68 1.5 1.5zm0-6.05c0 .82-.67 1.5-1.5 1.5s-1.5-.68-1.5-1.5c0-.83.67-1.5 1.5-1.5s1.5.67 1.5 1.5zm0-6.06c0 .83-.67 1.5-1.5 1.5s-1.5-.67-1.5-1.5.67-1.5 1.5-1.5 1.5.67 1.5 1.5zm0-6.06c0 .83-.67 1.5-1.5 1.5s-1.5-.67-1.5-1.5.67-1.5 1.5-1.5 1.5.67 1.5 1.5zm0-6.06c0 .83-.67 1.5-1.5 1.5s-1.5-.67-1.5-1.5.67-1.5 1.5-1.5 1.5.67 1.5 1.5zm0-6.05c0 .82-.67 1.5-1.5 1.5s-1.5-.68-1.5-1.5c0-.83.67-1.5 1.5-1.5s1.5.67 1.5 1.5zm0-6.06c0 .84-.67 1.5-1.5 1.5s-1.5-.66-1.5-1.5c0-.82.67-1.5 1.5-1.5s1.5.68 1.5 1.5zm0-6.05c0 .83-.67 1.5-1.5 1.5s-1.5-.67-1.5-1.5.67-1.5 1.5-1.5 1.5.67 1.5 1.5zm0-6.06c0 .82-.67 1.5-1.5 1.5s-1.5-.68-1.5-1.5c0-.84.67-1.5 1.5-1.5s1.5.66 1.5 1.5zm0-6.07c0 .83-.67 1.5-1.5 1.5s-1.5-.67-1.5-1.5c0-.82.67-1.5 1.5-1.5s1.5.68 1.5 1.5zm0-6.05c0 .83-.67 1.5-1.5 1.5s-1.5-.67-1.5-1.5.67-1.5 1.5-1.5 1.5.67 1.5 1.5zm0-6.06c0 .83-.67 1.5-1.5 1.5s-1.5-.67-1.5-1.5.67-1.5 1.5-1.5 1.5.67 1.5 1.5zm0-6.06c0 .83-.67 1.5-1.5 1.5s-1.5-.67-1.5-1.5.67-1.5 1.5-1.5 1.5.67 1.5 1.5zm0-6.06c0 .83-.67 1.5-1.5 1.5s-1.5-.67-1.5-1.5c0-.82.67-1.5 1.5-1.5s1.5.68 1.5 1.5zm0-6.05c0 .82-.67 1.5-1.5 1.5s-1.5-.68-1.5-1.5c0-.83.67-1.5 1.5-1.5s1.5.67 1.5 1.5zm0-6.06c0 .82-.67 1.5-1.5 1.5s-1.5-.68-1.5-1.5c0-.84.67-1.5 1.5-1.5s1.5.66 1.5 1.5zm0-6.07c0 .83-.67 1.5-1.5 1.5s-1.5-.67-1.5-1.5.67-1.5 1.5-1.5 1.5.67 1.5 1.5zm0-6.06c0 .83-.67 1.5-1.5 1.5s-1.5-.67-1.5-1.5.67-1.5 1.5-1.5 1.5.67 1.5 1.5zm0-6.05c0 .82-.67 1.5-1.5 1.5s-1.5-.68-1.5-1.5c0-.83.67-1.5 1.5-1.5s1.5.67 1.5 1.5zm0-6.06c0 .83-.67 1.5-1.5 1.5s-1.5-.67-1.5-1.5.67-1.5 1.5-1.5 1.5.67 1.5 1.5zm0-6.06c0 .83-.67 1.5-1.5 1.5s-1.5-.67-1.5-1.5.67-1.5 1.5-1.5 1.5.67 1.5 1.5z" fill="#5e5e5e"/><use xlink:href="#a" transform="matrix(1,0,0,1,495.96744918679866,272) translate(149.559088127621 62.0309586131565)"/><path d="M245.48 194.75c0 21.87-17.74 39.6-39.6 39.6-21.88 0-39.6-17.73-39.6-39.6s17.72-39.6 39.6-39.6c21.86 0 39.6 17.73 39.6 39.6z" stroke="#5e5e5e" stroke-width="3" fill="#fff"/><use xlink:href="#b" transform="matrix(1,0,0,1,171.2652066371822,160.1450835517246) translate(6.797603467108754 37.5309586131565)"/><path d="M360.66 194.54c0 21.87-17.73 39.6-39.6 39.6-21.88 0-39.6-17.73-39.6-39.6 0-21.88 17.72-39.6 39.6-39.6 21.87 0 39.6 17.72 39.6 39.6z" stroke="#5e5e5e" stroke-width="3" fill="#fff"/><use xlink:href="#c" transform="matrix(1,0,0,1,286.4512550934766,159.93046449367296) translate(12.340157785725577 37.5309586131565)"/><path d="M475.85 194.54c0 23.6-17.73 42.74-39.6 42.74-21.88 0-39.6-19.14-39.6-42.74s17.72-42.75 39.6-42.75c21.87 0 39.6 19.13 39.6 42.74z" stroke="#5e5e5e" stroke-width="3" fill="#fff"/><use xlink:href="#d" transform="matrix(1,0,0,1,401.63730354977093,156.79030355280292) translate(15.865457352336982 32.6559586131565)"/><use xlink:href="#e" transform="matrix(1,0,0,1,401.63730354977093,156.79030355280292) translate(14.25948754976956 49.57739653289125)"/><path d="M591.03 194.54c0 21.87-17.73 39.6-39.6 39.6s-39.6-17.73-39.6-39.6c0-21.88 17.73-39.6 39.6-39.6s39.6 17.72 39.6 39.6z" stroke="#5e5e5e" stroke-width="3" fill="#fff"/><use xlink:href="#f" transform="matrix(1,0,0,1,516.8233520060653,159.93046449367296) translate(11.125887935003867 37.5309586131565)"/><path d="M706.22 194.32c0 21.87-17.73 39.6-39.6 39.6-21.88 0-39.6-17.73-39.6-39.6s17.72-39.6 39.6-39.6c21.87 0 39.6 17.73 39.6 39.6z" stroke="#5e5e5e" stroke-width="3" fill="#fff"/><use xlink:href="#g" transform="matrix(1,0,0,1,632.0094004623597,159.71584543562136) translate(20.134986827455236 37.5309586131565)"/><path d="M247.98 194.75h13.68" stroke="#5e5e5e" stroke-width="2" fill="none"/><path d="M248 195.75h-1.08l.06-.97-.03-1.03H248z" fill="#5e5e5e"/><path d="M276.7 194.57l-14.2 4.8-.1-9.26z" stroke="#5e5e5e" stroke-width="2" fill="#5e5e5e"/><path d="M363.16 194.54h13.47" stroke="#5e5e5e" stroke-width="2" fill="none"/><path d="M363.2 195.54h-1.1l.06-.98-.03-1.02h1.06z" fill="#5e5e5e"/><path d="M391.9 194.54l-14.27 4.63v-9.27z" stroke="#5e5e5e" stroke-width="2" fill="#5e5e5e"/><path d="M478.35 194.54h13.47" stroke="#5e5e5e" stroke-width="2" fill="none"/><path d="M478.37 195.54h-1.08l.05-.98-.03-1.02h1.05z" fill="#5e5e5e"/><path d="M507.1 194.54l-14.28 4.63v-9.27z" stroke="#5e5e5e" stroke-width="2" fill="#5e5e5e"/><path d="M593.53 194.54h13.7" stroke="#5e5e5e" stroke-width="2" fill="none"/><path d="M593.56 195.54h-1.1l.08-.98-.03-1.02h1.06z" fill="#5e5e5e"/><path d="M622.27 194.36l-14.2 4.8-.12-9.27z" stroke="#5e5e5e" stroke-width="2" fill="#5e5e5e"/><path d="M325.12 60.83c0-3.32 2.68-6 6-6h100.13c3.3 0 6 2.68 6 6v17.6c0 3.3-2.7 6-6 6H331.12c-3.32 0-6-2.7-6-6z" stroke="#000" stroke-opacity="0" stroke-width="3" fill="#fff" fill-opacity="0"/><use xlink:href="#h" transform="matrix(1,0,0,1,330.1163279119904,59.82526160700723) translate(11.997059856359968 11.2809586131565)"/><use xlink:href="#i" transform="matrix(1,0,0,1,330.1163279119904,59.82526160700723) translate(87.08594062518291 11.2809586131565)"/><use xlink:href="#j" transform="matrix(1,0,0,1,330.1163279119904,59.82526160700723) translate(24.531458315422746 28.20239653289125)"/><path d="M666.6 152.2l-.08-3.55-.28-4.42-.45-4.3-.63-4.2-.78-4.1-.96-4.04-1.1-3.97-1.28-3.92-1.44-3.86L658 112l-1.8-3.83-2-3.8-2.18-3.8-2.42-3.8-2.65-3.83-2.9-3.83-3.2-3.85-3.5-3.9-3.86-3.92-4.23-3.96-4.65-4-5.1-4.06-5.64-4.08-6.22-4.13-6.87-4.17-7.6-4.17-8.4-4.16-9.28-4.13-10.25-4.06-11.3-3.9-12.38-3.75-13.54-3.47-14.66-3.1-15.73-2.67L481 17.5l-17.43-1.45-17.9-.75h-18.1l-17.9.75-17.46 1.47-16.7 2.1-15.8 2.67L345 25.4l-13.6 3.48-12.44 3.76-11.35 3.95-10.28 4.08-9.33 4.15-8.45 4.2-7.63 4.18-6.9 4.2-6.25 4.14-5.66 4.1-5.12 4.08-4.67 4.02-4.23 3.98-3.86 3.94-3.5 3.9-3.2 3.88-2.93 3.85-2.66 3.8-2.4 3.83-2.2 3.8-2 3.83-1.8 3.83-1.63 3.84-1.44 3.88-1.28 3.92-1.1 3.98-.95 4.03-.6 3.2" stroke="#5e5e5e" stroke-width="2" fill="none"/><path d="M667.62 153.28l-.98-.07-1.02.04-.03-1.03 2-.04z" fill="#5e5e5e"/><path d="M206.15 150.42l-3.36-14.62 9.22.82z" stroke="#5e5e5e" stroke-width="2" fill="#5e5e5e"/><path d="M380.18 22.1c0-3.3 2.68-6 6-6H486.3c3.32 0 6 2.7 6 6v17.6c0 3.3-2.68 6-6 6H386.2c-3.32 0-6-2.7-6-6z" stroke="#000" stroke-opacity="0" stroke-width="3" fill="#fff" fill-opacity="0"/><use xlink:href="#h" transform="matrix(1,0,0,1,385.1776727130442,21.100192147637564) translate(11.997059856359968 11.2809586131565)"/><use xlink:href="#i" transform="matrix(1,0,0,1,385.1776727130442,21.100192147637564) translate(87.08594062518291 11.2809586131565)"/><use xlink:href="#j" transform="matrix(1,0,0,1,385.1776727130442,21.100192147637564) translate(24.531458315422746 28.20239653289125)"/><path d="M592.47 332.92c0 22.02-17.73 39.87-39.6 39.87-21.88 0-39.6-17.86-39.6-39.88 0-22.03 17.72-39.88 39.6-39.88 21.87 0 39.6 17.85 39.6 39.88z" stroke="#5e5e5e" stroke-width="3" fill="#fff"/><use xlink:href="#k" transform="matrix(1,0,0,1,518.2629506108422,298.0419528640128) translate(17.80437211397325 28.7809586131565)"/><use xlink:href="#l" transform="matrix(1,0,0,1,518.2629506108422,298.0419528640128) translate(5.269973654910476 45.70239653289125)"/><path d="M551.4 152.43l-.04-2.42-.2-3.3-.35-3.23-.45-3.15-.6-3.08-.7-3.03-.83-2.97-.96-2.93-1.08-2.9-1.2-2.9-1.36-2.86-1.5-2.85-1.64-2.87-1.8-2.85-2-2.87-2.2-2.86-2.4-2.9-2.62-2.92-2.88-2.94-3.17-2.98-3.48-3-3.84-3.05-4.23-3.07-4.67-3.1-5.15-3.12-5.7-3.13-6.3-3.13-6.97-3.1-7.7-3.04-8.47-2.95-9.3-2.8-10.16-2.6-11-2.33-11.8-2-12.52-1.57-13.07-1.1-13.44-.56h-13.55l-13.44.56-13.07 1.1L333 53.18l-11.84 2-11.02 2.35-10.2 2.6-9.32 2.82-8.5 2.96-7.7 3.06-7 3.1-6.32 3.15-5.72 3.15-5.17 3.13-4.67 3.1-4.25 3.1-3.85 3.04-3.5 3.02-3.17 2.98-2.9 2.95-2.63 2.93-2.4 2.9-2.2 2.9-1.98 2.86-1.82 2.86-1.65 2.86-1.5 2.86-1.35 2.87-1.2 2.9-1.1 2.9-.95 2.95-.83 2.97-.2.9" stroke="#5e5e5e" stroke-width="2" fill="none"/><path d="M552.43 153.5l-.97-.07-1.03.03-.02-1.04 2-.04z" fill="#5e5e5e"/><path d="M206.25 150.43l-2.92-14.7 9.2 1.08z" stroke="#5e5e5e" stroke-width="2" fill="#5e5e5e"/><path d="M436.2 239.78l-.07 1.66-.32 2.36-.47 2.14-.63 1.97-.77 1.86-.93 1.74-1.08 1.7-1.28 1.62-1.5 1.6-1.8 1.6-2.14 1.6-2.62 1.63-3.27 1.63-4.15 1.64-5.48 1.6-7.48 1.5-4.03.45" stroke="#5e5e5e" stroke-width="2" fill="none"/><path d="M436.22 238.78l1.02-.02-.04 1.1-2-.1.04-1.03z" fill="#5e5e5e"/><path d="M382.94 268.98l13.97-5.48.56 9.25z" stroke="#5e5e5e" stroke-width="2" fill="#5e5e5e"/><path d="M707.66 332.92c0 21.87-17.73 39.6-39.6 39.6-21.88 0-39.6-17.73-39.6-39.6 0-21.88 17.72-39.6 39.6-39.6 21.87 0 39.6 17.72 39.6 39.6z" stroke="#5e5e5e" stroke-width="3" fill="#fff"/><use xlink:href="#m" transform="matrix(1,0,0,1,633.4489990671366,298.30996030005736) translate(0.17787428091622814 37.5309586131565)"/><path d="M819.97 332.92c0 22.02-17.74 39.87-39.6 39.87-21.88 0-39.6-17.86-39.6-39.88 0-22.03 17.72-39.88 39.6-39.88 21.86 0 39.6 17.85 39.6 39.88z" stroke="#5e5e5e" stroke-width="3" fill="#fff"/><use xlink:href="#n" transform="matrix(1,0,0,1,745.7558503138771,298.0419528640128) translate(9.20655817095988 37.5309586131565)"/><use xlink:href="#o" transform="matrix(1,0,0,1,745.7558503138771,298.0419528640128) translate(35.72464491091457 37.5309586131565)"/><path d="M436.27 239.78l.15 5.8.54 6.7.87 6.53 1.2 6.33 1.46 6.05 1.72 5.74 1.94 5.4 2.13 5.07 2.28 4.7 2.4 4.38 2.53 4.03 2.6 3.73 2.68 3.42 2.73 3.13 2.8 2.87 2.82 2.62 2.87 2.4 2.9 2.17 2.97 1.98 3 1.78 3.07 1.6 3.12 1.43 3.2 1.26 3.25 1.08 1.97.54" stroke="#5e5e5e" stroke-width="2" fill="none"/><path d="M436.22 238.78l1.02-.02.03 1.02-2 .06-.03-1.1z" fill="#5e5e5e"/><path d="M508.55 332.5l-14.74 2.74 1.2-9.2z" stroke="#5e5e5e" stroke-width="2" fill="#5e5e5e"/><path d="M268.05 257.1c0-3.3 2.68-6 6-6h100.13c3.3 0 6 2.7 6 6v16.04c0 3.3-2.7 6-6 6H274.05c-3.32 0-6-2.7-6-6z" stroke="#000" stroke-opacity="0" stroke-width="3" fill="#fff" fill-opacity="0"/><use xlink:href="#p" transform="matrix(1,0,0,1,273.0474694602385,256.1053976868483) translate(17.872559134045645 11.2809586131565)"/><use xlink:href="#q" transform="matrix(1,0,0,1,273.0474694602385,256.1053976868483) translate(35.068187020072386 28.20239653289125)"/><path d="M267.58 251.03c0-3.3 2.7-6 6-6H373.7c3.32 0 6 2.7 6 6v36.28c0 3.32-2.68 6-6 6H273.6c-3.3 0-6-2.68-6-6z" stroke="#000" stroke-opacity="0" stroke-width="3" fill="#fff" fill-opacity="0"/><use xlink:href="#r" transform="matrix(1,0,0,1,272.5802602800184,250.03167834398812) translate(28.281082059333013 55.72540305760077)"/><path d="M594.97 332.92h13.48" stroke="#5e5e5e" stroke-width="2" fill="none"/><path d="M595 333.92h-1.1l.08-.98-.04-1.02H595z" fill="#5e5e5e"/><path d="M623.7 332.92l-14.25 4.63v-9.27z" stroke="#5e5e5e" stroke-width="2" fill="#5e5e5e"/><path d="M710.16 332.92h10.6" stroke="#5e5e5e" stroke-width="2" fill="none"/><path d="M710.2 333.92h-1.1l.06-.98-.03-1.02h1.06z" fill="#5e5e5e"/><path d="M736.02 332.92l-14.27 4.63v-9.27z" stroke="#5e5e5e" stroke-width="2" fill="#5e5e5e"/><path d="M780.34 375.3l-.1 4.92-.35 5.57-.56 5.25-.74 5-.9 4.75-1.07 4.53-1.2 4.35-1.37 4.18-1.5 4.02-1.63 3.9-1.78 3.76-1.9 3.66-2.07 3.57-2.2 3.48-2.38 3.4-2.53 3.35-2.7 3.27-2.92 3.23-3.1 3.17-3.34 3.14-3.58 3.1-3.85 3.05-4.15 3-4.48 3-4.86 2.93-5.26 2.9-5.72 2.83-6.24 2.78-6.82 2.7-7.47 2.6-8.2 2.47-9.03 2.32-9.95 2.1-11 1.86-12.15 1.53-13.4 1.13-14.8.6H598.8l-17.75-.76-19.26-1.62-20.67-2.62-21.88-3.7-22.8-4.85-23.33-6-23.4-7.06-23-8.02-22.17-8.78-21-9.35-19.6-9.73-18.05-9.9-16.44-9.96-14.86-9.87-13.36-9.72-11.96-9.47-10.68-9.2-9.5-8.93-8.47-8.64-7.52-8.35-6.68-8.07-5.93-7.8-5.27-7.58-4.67-7.34-4.12-7.14-3.63-6.95-3.2-6.8-2.78-6.63-2.42-6.5-2.08-6.4-1.76-6.3-1.46-6.23-1.17-6.17-.88-5.96" stroke="#5e5e5e" stroke-width="2" fill="none"/><path d="M780.34 374.3l1.02-.04-.02 1.08-2-.04.02-1.07z" fill="#5e5e5e"/><path d="M206.08 239.1l5.53 13.93-9.24.6z" stroke="#5e5e5e" stroke-width="2" fill="#5e5e5e"/><path d="M550.85 257.1c0-3.3 2.7-6 6-6h228c3.3 0 6 2.7 6 6v48c0 3.32-2.7 6-6 6h-228c-3.3 0-6-2.68-6-6z" stroke="#000" stroke-opacity="0" stroke-width="3" fill="#fff" fill-opacity="0"/><g><use xlink:href="#s" transform="matrix(1,0,0,1,555.8511212748083,256.1053976868483) translate(61.32716049382716 30.27777777777778)"/></g><defs><path fill="#333" d="M30-248c87 1 191-15 191 75 0 78-77 80-158 76V0H30v-248zm33 125c57 0 124 11 124-50 0-59-68-47-124-48v98" id="t"/><path fill="#333" d="M114-163C36-179 61-72 57 0H25l-1-190h30c1 12-1 29 2 39 6-27 23-49 58-41v29" id="u"/><path fill="#333" d="M100-194c62-1 85 37 85 99 1 63-27 99-86 99S16-35 15-95c0-66 28-99 85-99zM99-20c44 1 53-31 53-75 0-43-8-75-51-75s-53 32-53 75 10 74 51 75" id="v"/><path fill="#333" d="M96-169c-40 0-48 33-48 73s9 75 48 75c24 0 41-14 43-38l32 2c-6 37-31 61-74 61-59 0-76-41-82-99-10-93 101-131 147-64 4 7 5 14 7 22l-32 3c-4-21-16-35-41-35" id="w"/><path fill="#333" d="M100-194c63 0 86 42 84 106H49c0 40 14 67 53 68 26 1 43-12 49-29l28 8c-11 28-37 45-77 45C44 4 14-33 15-96c1-61 26-98 85-98zm52 81c6-60-76-77-97-28-3 7-6 17-6 28h103" id="x"/><path fill="#333" d="M135-143c-3-34-86-38-87 0 15 53 115 12 119 90S17 21 10-45l28-5c4 36 97 45 98 0-10-56-113-15-118-90-4-57 82-63 122-42 12 7 21 19 24 35" id="y"/><g id="a"><use transform="matrix(0.03916999518457118,0,0,0.03916999518457118,0,0)" xlink:href="#t"/><use transform="matrix(0.03916999518457118,0,0,0.03916999518457118,9.400798844297082,0)" xlink:href="#u"/><use transform="matrix(0.03916999518457118,0,0,0.03916999518457118,14.062028271261052,0)" xlink:href="#v"/><use transform="matrix(0.03916999518457118,0,0,0.03916999518457118,21.896027308175288,0)" xlink:href="#w"/><use transform="matrix(0.03916999518457118,0,0,0.03916999518457118,28.9466264413981,0)" xlink:href="#x"/><use transform="matrix(0.03916999518457118,0,0,0.03916999518457118,36.78062547831233,0)" xlink:href="#y"/><use transform="matrix(0.03916999518457118,0,0,0.03916999518457118,43.83122461153514,0)" xlink:href="#y"/></g><path fill="#333" d="M106-169C34-169 62-67 57 0H25v-261h32l-1 103c12-21 28-36 61-36 89 0 53 116 60 194h-32v-121c2-32-8-49-39-48" id="z"/><path fill="#333" d="M143 0L79-87 56-68V0H24v-261h32v163l83-92h37l-77 82L181 0h-38" id="A"/><path fill="#333" d="M84 4C-5 8 30-112 23-190h32v120c0 31 7 50 39 49 72-2 45-101 50-169h31l1 190h-30c-1-10 1-25-2-33-11 22-28 36-60 37" id="B"/><path fill="#333" d="M59-47c-2 24 18 29 38 22v24C64 9 27 4 27-40v-127H5v-23h24l9-43h21v43h35v23H59v120" id="C"/><g id="b"><use transform="matrix(0.03916999518457118,0,0,0.03916999518457118,0,0)" xlink:href="#w"/><use transform="matrix(0.03916999518457118,0,0,0.03916999518457118,7.0505991332228115,0)" xlink:href="#z"/><use transform="matrix(0.03916999518457118,0,0,0.03916999518457118,14.884598170137048,0)" xlink:href="#x"/><use transform="matrix(0.03916999518457118,0,0,0.03916999518457118,22.718597207051282,0)" xlink:href="#w"/><use transform="matrix(0.03916999518457118,0,0,0.03916999518457118,29.769196340274096,0)" xlink:href="#A"/><use transform="matrix(0.03916999518457118,0,0,0.03916999518457118,36.8197954734969,0)" xlink:href="#v"/><use transform="matrix(0.03916999518457118,0,0,0.03916999518457118,44.65379451041114,0)" xlink:href="#B"/><use transform="matrix(0.03916999518457118,0,0,0.03916999518457118,52.487793547325374,0)" xlink:href="#C"/></g><path fill="#333" d="M210-169c-67 3-38 105-44 169h-31v-121c0-29-5-50-35-48C34-165 62-65 56 0H25l-1-190h30c1 10-1 24 2 32 10-44 99-50 107 0 11-21 27-35 58-36 85-2 47 119 55 194h-31v-121c0-29-5-49-35-48" id="D"/><path fill="#333" d="M24-231v-30h32v30H24zM24 0v-190h32V0H24" id="E"/><g id="c"><use transform="matrix(0.03916999518457118,0,0,0.03916999518457118,0,0)" xlink:href="#w"/><use transform="matrix(0.03916999518457118,0,0,0.03916999518457118,7.0505991332228115,0)" xlink:href="#v"/><use transform="matrix(0.03916999518457118,0,0,0.03916999518457118,14.884598170137048,0)" xlink:href="#D"/><use transform="matrix(0.03916999518457118,0,0,0.03916999518457118,26.59642673032383,0)" xlink:href="#D"/><use transform="matrix(0.03916999518457118,0,0,0.03916999518457118,38.30825529051061,0)" xlink:href="#E"/><use transform="matrix(0.03916999518457118,0,0,0.03916999518457118,41.40268491009172,0)" xlink:href="#C"/></g><path fill="#333" d="M212-179c-10-28-35-45-73-45-59 0-87 40-87 99 0 60 29 101 89 101 43 0 62-24 78-52l27 14C228-24 195 4 139 4 59 4 22-46 18-125c-6-104 99-153 187-111 19 9 31 26 39 46" id="F"/><path fill="#333" d="M33 0v-248h34V0H33" id="G"/><path fill="#333" d="M0 4l72-265h28L28 4H0" id="H"/><path fill="#333" d="M30-248c118-7 216 8 213 122C240-48 200 0 122 0H30v-248zM63-27c89 8 146-16 146-99s-60-101-146-95v194" id="I"/><g id="d"><use transform="matrix(0.03916999518457118,0,0,0.03916999518457118,0,0)" xlink:href="#F"/><use transform="matrix(0.03916999518457118,0,0,0.03916999518457118,10.145028752803935,0)" xlink:href="#G"/><use transform="matrix(0.03916999518457118,0,0,0.03916999518457118,14.062028271261052,0)" xlink:href="#H"/><use transform="matrix(0.03916999518457118,0,0,0.03916999518457118,17.97902778971817,0)" xlink:href="#F"/><use transform="matrix(0.03916999518457118,0,0,0.03916999518457118,28.124056542522105,0)" xlink:href="#I"/></g><path fill="#333" d="M117-194c89-4 53 116 60 194h-32v-121c0-31-8-49-39-48C34-167 62-67 57 0H25l-1-190h30c1 10-1 24 2 32 11-22 29-35 61-36" id="J"/><path fill="#333" d="M177-190C167-65 218 103 67 71c-23-6-38-20-44-43l32-5c15 47 100 32 89-28v-30C133-14 115 1 83 1 29 1 15-40 15-95c0-56 16-97 71-98 29-1 48 16 59 35 1-10 0-23 2-32h30zM94-22c36 0 50-32 50-73 0-42-14-75-50-75-39 0-46 34-46 75s6 73 46 73" id="K"/><g id="e"><use transform="matrix(0.03916999518457118,0,0,0.03916999518457118,0,0)" xlink:href="#C"/><use transform="matrix(0.03916999518457118,0,0,0.03916999518457118,3.916999518457118,0)" xlink:href="#x"/><use transform="matrix(0.03916999518457118,0,0,0.03916999518457118,11.750998555371353,0)" xlink:href="#y"/><use transform="matrix(0.03916999518457118,0,0,0.03916999518457118,18.801597688594164,0)" xlink:href="#C"/><use transform="matrix(0.03916999518457118,0,0,0.03916999518457118,22.718597207051282,0)" xlink:href="#E"/><use transform="matrix(0.03916999518457118,0,0,0.03916999518457118,25.813026826632406,0)" xlink:href="#J"/><use transform="matrix(0.03916999518457118,0,0,0.03916999518457118,33.647025863546645,0)" xlink:href="#K"/></g><path fill="#333" d="M185-189c-5-48-123-54-124 2 14 75 158 14 163 119 3 78-121 87-175 55-17-10-28-26-33-46l33-7c5 56 141 63 141-1 0-78-155-14-162-118-5-82 145-84 179-34 5 7 8 16 11 25" id="L"/><path fill="#333" d="M141-36C126-15 110 5 73 4 37 3 15-17 15-53c-1-64 63-63 125-63 3-35-9-54-41-54-24 1-41 7-42 31l-33-3c5-37 33-52 76-52 45 0 72 20 72 64v82c-1 20 7 32 28 27v20c-31 9-61-2-59-35zM48-53c0 20 12 33 32 33 41-3 63-29 60-74-43 2-92-5-92 41" id="M"/><g id="f"><use transform="matrix(0.03916999518457118,0,0,0.03916999518457118,0,0)" xlink:href="#L"/><use transform="matrix(0.03916999518457118,0,0,0.03916999518457118,9.400798844297082,0)" xlink:href="#C"/><use transform="matrix(0.03916999518457118,0,0,0.03916999518457118,13.3177983627542,0)" xlink:href="#M"/><use transform="matrix(0.03916999518457118,0,0,0.03916999518457118,21.151797399668435,0)" xlink:href="#K"/><use transform="matrix(0.03916999518457118,0,0,0.03916999518457118,28.98579643658267,0)" xlink:href="#E"/><use transform="matrix(0.03916999518457118,0,0,0.03916999518457118,32.080226056163795,0)" xlink:href="#J"/><use transform="matrix(0.03916999518457118,0,0,0.03916999518457118,39.91422509307803,0)" xlink:href="#K"/></g><path fill="#333" d="M85-194c31 0 48 13 60 33l-1-100h32l1 261h-30c-2-10 0-23-3-31C134-8 116 4 85 4 32 4 16-35 15-94c0-66 23-100 70-100zm9 24c-40 0-46 34-46 75 0 40 6 74 45 74 42 0 51-32 51-76 0-42-9-74-50-73" id="N"/><g id="g"><use transform="matrix(0.03916999518457118,0,0,0.03916999518457118,0,0)" xlink:href="#t"/><use transform="matrix(0.03916999518457118,0,0,0.03916999518457118,9.400798844297082,0)" xlink:href="#u"/><use transform="matrix(0.03916999518457118,0,0,0.03916999518457118,14.062028271261052,0)" xlink:href="#v"/><use transform="matrix(0.03916999518457118,0,0,0.03916999518457118,21.896027308175288,0)" xlink:href="#N"/></g><path fill="#333" d="M233-177c-1 41-23 64-60 70L243 0h-38l-65-103H63V0H30v-248c88 3 205-21 203 71zM63-129c60-2 137 13 137-47 0-61-80-42-137-45v92" id="O"/><g id="h"><use transform="matrix(0.03916999518457118,0,0,0.03916999518457118,0,0)" xlink:href="#O"/><use transform="matrix(0.03916999518457118,0,0,0.03916999518457118,10.145028752803935,0)" xlink:href="#x"/><use transform="matrix(0.03916999518457118,0,0,0.03916999518457118,17.97902778971817,0)" xlink:href="#K"/><use transform="matrix(0.03916999518457118,0,0,0.03916999518457118,25.813026826632406,0)" xlink:href="#u"/><use transform="matrix(0.03916999518457118,0,0,0.03916999518457118,30.474256253596376,0)" xlink:href="#x"/><use transform="matrix(0.03916999518457118,0,0,0.03916999518457118,38.308255290510616,0)" xlink:href="#y"/><use transform="matrix(0.03916999518457118,0,0,0.03916999518457118,45.358854423733426,0)" xlink:href="#y"/><use transform="matrix(0.03916999518457118,0,0,0.03916999518457118,52.40945355695624,0)" xlink:href="#E"/><use transform="matrix(0.03916999518457118,0,0,0.03916999518457118,55.50388317653736,0)" xlink:href="#v"/><use transform="matrix(0.03916999518457118,0,0,0.03916999518457118,63.33788221345159,0)" xlink:href="#J"/></g><use transform="matrix(0.03916999518457118,0,0,0.03916999518457118,0,0)" xlink:href="#H" id="i"/><path fill="#333" d="M24 0v-261h32V0H24" id="P"/><path fill="#333" d="M115-194c53 0 69 39 70 98 0 66-23 100-70 100C84 3 66-7 56-30L54 0H23l1-261h32v101c10-23 28-34 59-34zm-8 174c40 0 45-34 45-75 0-40-5-75-45-74-42 0-51 32-51 76 0 43 10 73 51 73" id="Q"/><g id="j"><use transform="matrix(0.03916999518457118,0,0,0.03916999518457118,0,0)" xlink:href="#O"/><use transform="matrix(0.03916999518457118,0,0,0.03916999518457118,10.145028752803935,0)" xlink:href="#v"/><use transform="matrix(0.03916999518457118,0,0,0.03916999518457118,17.97902778971817,0)" xlink:href="#P"/><use transform="matrix(0.03916999518457118,0,0,0.03916999518457118,21.073457409299294,0)" xlink:href="#P"/><use transform="matrix(0.03916999518457118,0,0,0.03916999518457118,24.167887028880422,0)" xlink:href="#Q"/><use transform="matrix(0.03916999518457118,0,0,0.03916999518457118,32.00188606579465,0)" xlink:href="#M"/><use transform="matrix(0.03916999518457118,0,0,0.03916999518457118,39.835885102708886,0)" xlink:href="#w"/><use transform="matrix(0.03916999518457118,0,0,0.03916999518457118,46.8864842359317,0)" xlink:href="#A"/></g><path fill="#333" d="M63-220v92h138v28H63V0H30v-248h175v28H63" id="R"/><g id="k"><use transform="matrix(0.03916999518457118,0,0,0.03916999518457118,0,0)" xlink:href="#R"/><use transform="matrix(0.03916999518457118,0,0,0.03916999518457118,8.578228945421088,0)" xlink:href="#P"/><use transform="matrix(0.03916999518457118,0,0,0.03916999518457118,11.672658565002212,0)" xlink:href="#M"/><use transform="matrix(0.03916999518457118,0,0,0.03916999518457118,19.506657601916448,0)" xlink:href="#A"/><use transform="matrix(0.03916999518457118,0,0,0.03916999518457118,26.55725673513926,0)" xlink:href="#x"/></g><g id="l"><use transform="matrix(0.03916999518457118,0,0,0.03916999518457118,0,0)" xlink:href="#I"/><use transform="matrix(0.03916999518457118,0,0,0.03916999518457118,10.145028752803935,0)" xlink:href="#x"/><use transform="matrix(0.03916999518457118,0,0,0.03916999518457118,17.97902778971817,0)" xlink:href="#C"/><use transform="matrix(0.03916999518457118,0,0,0.03916999518457118,21.896027308175288,0)" xlink:href="#x"/><use transform="matrix(0.03916999518457118,0,0,0.03916999518457118,29.730026345089524,0)" xlink:href="#w"/><use transform="matrix(0.03916999518457118,0,0,0.03916999518457118,36.78062547831234,0)" xlink:href="#C"/><use transform="matrix(0.03916999518457118,0,0,0.03916999518457118,40.697624996769456,0)" xlink:href="#E"/><use transform="matrix(0.03916999518457118,0,0,0.03916999518457118,43.792054616350576,0)" xlink:href="#v"/><use transform="matrix(0.03916999518457118,0,0,0.03916999518457118,51.62605365326481,0)" xlink:href="#J"/></g><path fill="#333" d="M140-251c81 0 123 46 123 126C263-53 228-8 163 1c7 30 30 48 69 40v23c-55 16-95-15-103-61C56-3 17-48 17-125c0-80 42-126 123-126zm0 227c63 0 89-41 89-101s-29-99-89-99c-61 0-89 39-89 99S79-25 140-24" id="S"/><g id="m"><use transform="matrix(0.03916999518457118,0,0,0.03916999518457118,0,0)" xlink:href="#S"/><use transform="matrix(0.03916999518457118,0,0,0.03916999518457118,10.96759865167993,0)" xlink:href="#B"/><use transform="matrix(0.03916999518457118,0,0,0.03916999518457118,18.801597688594164,0)" xlink:href="#M"/><use transform="matrix(0.03916999518457118,0,0,0.03916999518457118,26.6355967255084,0)" xlink:href="#u"/><use transform="matrix(0.03916999518457118,0,0,0.03916999518457118,31.29682615247237,0)" xlink:href="#M"/><use transform="matrix(0.03916999518457118,0,0,0.03916999518457118,39.130825189386606,0)" xlink:href="#J"/><use transform="matrix(0.03916999518457118,0,0,0.03916999518457118,46.96482422630084,0)" xlink:href="#C"/><use transform="matrix(0.03916999518457118,0,0,0.03916999518457118,50.88182374475796,0)" xlink:href="#E"/><use transform="matrix(0.03916999518457118,0,0,0.03916999518457118,53.97625336433908,0)" xlink:href="#J"/><use transform="matrix(0.03916999518457118,0,0,0.03916999518457118,61.810252401253315,0)" xlink:href="#x"/></g><g id="n"><use transform="matrix(0.03916999518457118,0,0,0.03916999518457118,0,0)" xlink:href="#R"/><use transform="matrix(0.03916999518457118,0,0,0.03916999518457118,8.578228945421088,0)" xlink:href="#E"/><use transform="matrix(0.03916999518457118,0,0,0.03916999518457118,11.672658565002212,0)" xlink:href="#P"/><use transform="matrix(0.03916999518457118,0,0,0.03916999518457118,14.767088184583336,0)" xlink:href="#x"/></g><path fill="#333" d="M160-131c35 5 61 23 61 61C221 17 115-2 30 0v-248c76 3 177-17 177 60 0 33-19 50-47 57zm-97-11c50-1 110 9 110-42 0-47-63-36-110-37v79zm0 115c55-2 124 14 124-45 0-56-70-42-124-44v89" id="T"/><g id="o"><use transform="matrix(0.03916999518457118,0,0,0.03916999518457118,0,0)" xlink:href="#T"/><use transform="matrix(0.03916999518457118,0,0,0.03916999518457118,9.400798844297082,0)" xlink:href="#B"/><use transform="matrix(0.03916999518457118,0,0,0.03916999518457118,17.234797881211318,0)" xlink:href="#K"/></g><path fill="#333" d="M115-194c55 1 70 41 70 98S169 2 115 4C84 4 66-9 55-30l1 105H24l-1-265h31l2 30c10-21 28-34 59-34zm-8 174c40 0 45-34 45-75s-6-73-45-74c-42 0-51 32-51 76 0 43 10 73 51 73" id="U"/><g id="p"><use transform="matrix(0.03916999518457118,0,0,0.03916999518457118,0,0)" xlink:href="#L"/><use transform="matrix(0.03916999518457118,0,0,0.03916999518457118,9.400798844297082,0)" xlink:href="#U"/><use transform="matrix(0.03916999518457118,0,0,0.03916999518457118,17.234797881211318,0)" xlink:href="#M"/><use transform="matrix(0.03916999518457118,0,0,0.03916999518457118,25.068796918125553,0)" xlink:href="#D"/><use transform="matrix(0.03916999518457118,0,0,0.03916999518457118,36.78062547831233,0)" xlink:href="#D"/><use transform="matrix(0.03916999518457118,0,0,0.03916999518457118,48.492454038499105,0)" xlink:href="#E"/><use transform="matrix(0.03916999518457118,0,0,0.03916999518457118,51.58688365808023,0)" xlink:href="#J"/><use transform="matrix(0.03916999518457118,0,0,0.03916999518457118,59.42088269499447,0)" xlink:href="#K"/></g><path fill="#333" d="M127-220V0H93v-220H8v-28h204v28h-85" id="V"/><g id="q"><use transform="matrix(0.03916999518457118,0,0,0.03916999518457118,0,0)" xlink:href="#V"/><use transform="matrix(0.03916999518457118,0,0,0.03916999518457118,7.011429138038241,0)" xlink:href="#x"/><use transform="matrix(0.03916999518457118,0,0,0.03916999518457118,14.845428174952477,0)" xlink:href="#y"/><use transform="matrix(0.03916999518457118,0,0,0.03916999518457118,21.896027308175288,0)" xlink:href="#C"/><use transform="matrix(0.03916999518457118,0,0,0.03916999518457118,25.813026826632406,0)" xlink:href="#y"/></g><path fill="#c92d39" d="M182 0l-62-99L58 0H3l86-130-79-118h55l55 88 55-88h55l-75 118L237 0h-55" id="W"/><use transform="matrix(0.19349098283889157,0,0,0.19349098283889157,0,0)" xlink:href="#W" id="r"/><path fill="#333" d="M205 0l-28-72H64L36 0H1l101-248h38L239 0h-34zm-38-99l-47-123c-12 45-31 82-46 123h93" id="X"/><g id="s"><use transform="matrix(0.06172839506172839,0,0,0.06172839506172839,0,0)" xlink:href="#X"/><use transform="matrix(0.06172839506172839,0,0,0.06172839506172839,14.814814814814813,0)" xlink:href="#B"/><use transform="matrix(0.06172839506172839,0,0,0.06172839506172839,27.160493827160494,0)" xlink:href="#C"/><use transform="matrix(0.06172839506172839,0,0,0.06172839506172839,33.333333333333336,0)" xlink:href="#v"/><use transform="matrix(0.06172839506172839,0,0,0.06172839506172839,45.67901234567901,0)" xlink:href="#D"/><use transform="matrix(0.06172839506172839,0,0,0.06172839506172839,64.1358024691358,0)" xlink:href="#M"/><use transform="matrix(0.06172839506172839,0,0,0.06172839506172839,76.48148148148148,0)" xlink:href="#C"/><use transform="matrix(0.06172839506172839,0,0,0.06172839506172839,82.65432098765432,0)" xlink:href="#x"/><use transform="matrix(0.06172839506172839,0,0,0.06172839506172839,95,0)" xlink:href="#N"/></g></defs></g></svg>